<svg xmlns="http://www.w3.org/2000/svg" width="1200" height="110" viewBox="0 0 1200 110" role="img" aria-labelledby="title">
  <title id="title">Python, NumPy and SciPy, Numba, Joblib, pandas, scikit-learn, CatBoost, PyTorch</title>
  <rect width="1200" height="110" rx="16" fill="#10182d"/>
  <g font-family="DejaVu Sans, Arial, sans-serif">
    <text x="28" y="27" font-size="11" letter-spacing="2" fill="#a5b4cf">THE RESEARCH STACK</text>
    <g font-size="14" font-weight="bold" text-anchor="middle">
      <rect x="28" y="43" width="130" height="42" rx="9" fill="#20384f"/><text x="93" y="69" fill="#7dd3fc">Python</text>
      <rect x="171" y="43" width="163" height="42" rx="9" fill="#20384f"/><text x="252" y="69" fill="#7dd3fc">NumPy / SciPy</text>
      <rect x="347" y="43" width="130" height="42" rx="9" fill="#183d36"/><text x="412" y="69" fill="#6ee7b7">Numba</text>
      <rect x="490" y="43" width="116" height="42" rx="9" fill="#183d36"/><text x="548" y="69" fill="#6ee7b7">Joblib</text>
      <rect x="619" y="43" width="116" height="42" rx="9" fill="#322d50"/><text x="677" y="69" fill="#c4b5fd">pandas</text>
      <rect x="748" y="43" width="146" height="42" rx="9" fill="#403526"/><text x="821" y="69" fill="#fcd34d">scikit-learn</text>
      <rect x="907" y="43" width="130" height="42" rx="9" fill="#403526"/><text x="972" y="69" fill="#fcd34d">CatBoost</text>
      <rect x="1050" y="43" width="122" height="42" rx="9" fill="#452c36"/><text x="1111" y="69" fill="#fda4af">PyTorch</text>
    </g>
  </g>
</svg>
